<?xml version="1.0" encoding="utf-8"?>
<!-- Generated by IcoMoon.io -->
<!DOCTYPE svg PUBLIC "-//W3C//DTD SVG 1.1//EN" "http://www.w3.org/Graphics/SVG/1.1/DTD/svg11.dtd">
<svg version="1.1" xmlns="http://www.w3.org/2000/svg" xmlns:xlink="http://www.w3.org/1999/xlink" width="45px" height="45px" viewBox="0 0 50 50">
<path fill="#ffffff" d="M21.429 3.571q5.831 0 10.756 2.874t7.799 7.799 2.874 10.756-2.874 10.756-7.799 7.799-10.756 2.874-10.756-2.874-7.799-7.799-2.874-10.756 2.874-10.756 7.799-7.799 10.756-2.874zM25 38.365v-5.301q0-0.391-0.251-0.656t-0.614-0.265h-5.357q-0.363 0-0.642 0.279t-0.279 0.642v5.301q0 0.363 0.279 0.642t0.642 0.279h5.357q0.363 0 0.614-0.265t0.251-0.656zM24.944 28.767l0.502-17.327q0-0.335-0.279-0.502-0.279-0.223-0.67-0.223h-6.138q-0.391 0-0.67 0.223-0.279 0.167-0.279 0.502l0.474 17.327q0 0.279 0.279 0.488t0.67 0.209h5.162q0.391 0 0.656-0.209t0.293-0.488z"></path>
</svg>
