<?xml version="1.0" encoding="utf-8"?>
<!-- Generated by IcoMoon.io -->
<!DOCTYPE svg PUBLIC "-//W3C//DTD SVG 1.1//EN" "http://www.w3.org/Graphics/SVG/1.1/DTD/svg11.dtd">
<svg version="1.1" xmlns="http://www.w3.org/2000/svg" xmlns:xlink="http://www.w3.org/1999/xlink" width="50" height="50" viewBox="0 0 50 50">
<path fill="#ffffff" d="M46.429 41.964v-21.429q-0.893 1.004-1.925 1.842-7.478 5.748-11.886 9.431-1.423 1.2-2.316 1.869t-2.414 1.353-2.86 0.684h-0.056q-1.339 0-2.86-0.684t-2.414-1.353-2.316-1.869q-4.408-3.683-11.886-9.431-1.032-0.837-1.925-1.842v21.429q0 0.363 0.265 0.628t0.628 0.265h41.071q0.363 0 0.628-0.265t0.265-0.628zM46.429 12.64v-0.684t-0.014-0.363-0.084-0.349-0.153-0.251-0.251-0.209-0.391-0.070h-41.071q-0.363 0-0.628 0.265t-0.265 0.628q0 4.688 4.102 7.924 5.385 4.241 11.189 8.845 0.167 0.14 0.977 0.823t1.283 1.046 1.242 0.879 1.409 0.767 1.2 0.251h0.056q0.558 0 1.2-0.251t1.409-0.767 1.242-0.879 1.283-1.046 0.977-0.823q5.804-4.604 11.189-8.845 1.507-1.2 2.804-3.223t1.297-3.669zM50 11.607v30.357q0 1.842-1.311 3.153t-3.153 1.311h-41.071q-1.842 0-3.153-1.311t-1.311-3.153v-30.357q0-1.842 1.311-3.153t3.153-1.311h41.071q1.842 0 3.153 1.311t1.311 3.153z"></path>
</svg>
