<?xml version="1.0" encoding="utf-8"?>
<!-- Generated by IcoMoon.io -->
<!DOCTYPE svg PUBLIC "-//W3C//DTD SVG 1.1//EN" "http://www.w3.org/Graphics/SVG/1.1/DTD/svg11.dtd">
<svg version="1.1" xmlns="http://www.w3.org/2000/svg" xmlns:xlink="http://www.w3.org/1999/xlink" width="50" height="50" viewBox="0 0 50 50">
<path fill="#ffffff" d="M7.143 36.607v5.357q0 0.363-0.265 0.628t-0.628 0.265h-5.357q-0.363 0-0.628-0.265t-0.265-0.628v-5.357q0-0.363 0.265-0.628t0.628-0.265h5.357q0.363 0 0.628 0.265t0.265 0.628zM7.143 25.893v5.357q0 0.363-0.265 0.628t-0.628 0.265h-5.357q-0.363 0-0.628-0.265t-0.265-0.628v-5.357q0-0.363 0.265-0.628t0.628-0.265h5.357q0.363 0 0.628 0.265t0.265 0.628zM7.143 15.179v5.357q0 0.363-0.265 0.628t-0.628 0.265h-5.357q-0.363 0-0.628-0.265t-0.265-0.628v-5.357q0-0.363 0.265-0.628t0.628-0.265h5.357q0.363 0 0.628 0.265t0.265 0.628zM50 36.607v5.357q0 0.363-0.265 0.628t-0.628 0.265h-37.5q-0.363 0-0.628-0.265t-0.265-0.628v-5.357q0-0.363 0.265-0.628t0.628-0.265h37.5q0.363 0 0.628 0.265t0.265 0.628zM7.143 4.464v5.357q0 0.363-0.265 0.628t-0.628 0.265h-5.357q-0.363 0-0.628-0.265t-0.265-0.628v-5.357q0-0.363 0.265-0.628t0.628-0.265h5.357q0.363 0 0.628 0.265t0.265 0.628zM50 25.893v5.357q0 0.363-0.265 0.628t-0.628 0.265h-37.5q-0.363 0-0.628-0.265t-0.265-0.628v-5.357q0-0.363 0.265-0.628t0.628-0.265h37.5q0.363 0 0.628 0.265t0.265 0.628zM50 15.179v5.357q0 0.363-0.265 0.628t-0.628 0.265h-37.5q-0.363 0-0.628-0.265t-0.265-0.628v-5.357q0-0.363 0.265-0.628t0.628-0.265h37.5q0.363 0 0.628 0.265t0.265 0.628zM50 4.464v5.357q0 0.363-0.265 0.628t-0.628 0.265h-37.5q-0.363 0-0.628-0.265t-0.265-0.628v-5.357q0-0.363 0.265-0.628t0.628-0.265h37.5q0.363 0 0.628 0.265t0.265 0.628z"></path>
</svg>
